<svg id="Layer_1" data-name="Layer 1" xmlns="http://www.w3.org/2000/svg" xmlns:xlink="http://www.w3.org/1999/xlink" viewBox="0 0 669.97 743.1"><defs><clipPath id="clip-path" transform="translate(-484.01 -99.58)"><rect x="580.74" y="195.47" width="499.4" height="546.38" style="fill:none"/></clipPath><clipPath id="clip-path-2" transform="translate(-484.01 -99.58)"><path d="M997.33,418H987V397a64,64,0,0,0-64-64H667a64,64,0,0,0-64,64V610.21A106.82,106.82,0,0,0,709.59,717H880.14A106.83,106.83,0,0,0,984.6,631.57a76.77,76.77,0,0,0,86.67-65.45,78.21,78.21,0,0,0,.73-9.3V492.67A74.67,74.67,0,0,0,997.33,418ZM881,674H710a64,64,0,0,1-64-64V396.33A21.33,21.33,0,0,1,667.33,375H923.67A21.33,21.33,0,0,1,945,396.33V610A64,64,0,0,1,881,674Zm149-117.36a34.84,34.84,0,0,1-43,32.25v-129a34.86,34.86,0,0,1,43,32.25ZM774,268.55V225.83a21.5,21.5,0,1,1,43-.28v42.72a21.5,21.5,0,1,1-43,.28Zm85,0V225.83a21.5,21.5,0,1,1,43-.28v42.72a21.5,21.5,0,1,1-43,.28Zm-171,0V225.83a21.5,21.5,0,1,1,43-.28v42.72a21.5,21.5,0,1,1-43,.28Z" style="fill:none"/></clipPath></defs><g style="clip-path:url(#clip-path)"><g style="clip-path:url(#clip-path-2)"><rect x="632.92" y="561.41" width="509.5" height="174.16" transform="translate(-682.54 379.56) rotate(-27.29)" style="fill:#1b1e39"/><rect x="513.8" y="179.82" width="405.46" height="228.33" transform="translate(-539.06 261.65) rotate(-27.29)" style="fill:#ff3458"/><rect x="541.31" y="392.91" width="468.65" height="122.43" transform="translate(-605.9 306.57) rotate(-27.29)" style="fill:#fff260"/><rect x="572.54" y="476.82" width="509.44" height="120.1" transform="translate(-638.09 339.45) rotate(-27.29)" style="fill:#23dce0"/></g><path d="M795,608.24c-56.83,0-99.69-24.65-99.69-57.32a15,15,0,0,1,30,0c0,10.87,27.79,27.32,69.69,27.32s69.69-16.45,69.69-27.32a15,15,0,1,1,30,0C894.7,583.59,851.84,608.24,795,608.24Z" transform="translate(-484.01 -99.58)" style="fill:#1b1e39"/><circle cx="385.99" cy="387.42" r="20" style="fill:#1b1e39"/><circle cx="235.99" cy="387.42" r="20" style="fill:#1b1e39"/></g></svg>