<?xml version="1.0" encoding="UTF-8"?>
<svg xmlns="http://www.w3.org/2000/svg" id="Layer_1"  fill="#a0cdd7" data-name="Layer 1" viewBox="0 0 24 24">
  <path d="m6,9c0,1.687.716,3.305,1.965,4.44,1.106,1.006,2.556,1.559,4.048,1.559.19,0,.382-.009.573-.027,3.036-.29,5.414-3.007,5.414-6.187v-.785h1v-2h-1v-.5c0-3.033-2.467-5.5-5.5-5.5h-1c-3.033,0-5.5,2.467-5.5,5.5v.5h-1v2h1v1Zm10-.215c0,2.16-1.583,4.003-3.604,4.196-1.145.108-2.242-.253-3.086-1.021-.833-.757-1.31-1.836-1.31-2.96v-1h8v.785Zm-8-3.285c0-1.76,1.306-3.221,3-3.464v2.964h2v-2.964c1.694.243,3,1.704,3,3.464v.5h-8v-.5Zm13,15.5v3h-2v-3c0-1.654-1.346-3-3-3h-8c-1.654,0-3,1.346-3,3v3h-2v-3c0-2.757,2.243-5,5-5h8c2.757,0,5,2.243,5,5Z"/>
</svg>
