<svg width="52" height="53" viewBox="0 0 52 53" fill="none" xmlns="http://www.w3.org/2000/svg">
<path d="M38.4905 34.8155C37.9538 34.264 37.217 33.9529 36.4475 33.9529H35.6412C35.4072 33.9529 35.1826 33.8606 35.0162 33.6961C34.6873 33.3708 34.6646 32.8488 34.9471 32.4825C37.5851 29.0614 39.1543 24.7469 39.1543 20.0779C39.1543 9.00875 30.4055 0.0362549 19.6122 0.0362549C8.81893 0.0362549 0.0700684 9.00875 0.0700684 20.0779C0.0700684 31.1471 8.81893 40.1196 19.6122 40.1196C24.1556 40.1196 28.3546 38.5168 31.6872 35.8213C32.0516 35.5266 32.5846 35.5499 32.9056 35.8914C33.0571 36.0524 33.1414 36.2651 33.1414 36.4862V37.3431C33.1414 38.1347 33.4511 38.8949 34.0043 39.4611L45.875 51.611C47.1355 52.9011 49.211 52.9 50.4701 51.6087C51.6851 50.3627 51.6861 48.3755 50.4723 47.1283L38.4905 34.8155ZM19.6122 33.9529C12.1261 33.9529 6.08303 27.7554 6.08303 20.0779C6.08303 12.4004 12.1261 6.20292 19.6122 6.20292C27.0983 6.20292 33.1414 12.4004 33.1414 20.0779C33.1414 27.7554 27.0983 33.9529 19.6122 33.9529Z" fill="#292D32"/>
</svg>
