<svg width="54" height="55" viewBox="0 0 54 55" fill="none" xmlns="http://www.w3.org/2000/svg">
<mask id="mask0_42_220" style="mask-type:alpha" maskUnits="userSpaceOnUse" x="0" y="0" width="54" height="55">
<rect width="53.7028" height="55" rx="2" fill="#D9D9D9"/>
</mask>
<g mask="url(#mask0_42_220)">
<path d="M23.3762 30.5938C21.6059 30.5938 20.7085 32.7244 21.9452 33.991L29.6826 41.9153C30.4413 42.6923 30.4413 43.9328 29.6826 44.7098L28.2264 46.2012C27.4417 47.0048 26.1492 47.0048 25.3645 46.2012L8.52462 28.9546C7.76594 28.1776 7.76594 26.9371 8.52462 26.1601L25.4763 8.79893C26.2611 7.99524 27.5536 7.99524 28.3383 8.79893L29.7945 10.2903C30.5532 11.0673 30.5532 12.3078 29.7945 13.0848L21.9452 21.1236C20.7085 22.3903 21.6059 24.5209 23.3762 24.5209H44.5424C45.647 24.5209 46.5424 25.4163 46.5424 26.5209V28.5938C46.5424 29.6984 45.647 30.5938 44.5424 30.5938H23.3762Z" fill="#8A8A8A"/>
</g>
</svg>
