<svg width="54" height="55" viewBox="0 0 54 55" fill="none" xmlns="http://www.w3.org/2000/svg">
<mask id="mask0_42_226" style="mask-type:alpha" maskUnits="userSpaceOnUse" x="0" y="0" width="54" height="55">
<rect x="0.297119" width="53.7028" height="55" rx="2" fill="#D9D9D9"/>
</mask>
<g mask="url(#mask0_42_226)">
<path d="M32.0546 33.991C33.2914 32.7244 32.394 30.5938 30.6236 30.5938H9.45746C8.35289 30.5938 7.45746 29.6984 7.45746 28.5938V26.5209C7.45746 25.4163 8.35289 24.5209 9.45746 24.5209H30.6236C32.394 24.5209 33.2914 22.3903 32.0546 21.1236L24.2054 13.0848C23.4467 12.3078 23.4467 11.0673 24.2054 10.2903L25.6616 8.79893C26.4463 7.99524 27.7388 7.99524 28.5235 8.79893L45.4753 26.1601C46.2339 26.9371 46.2339 28.1776 45.4753 28.9546L28.6354 46.2012C27.8507 47.0048 26.5582 47.0048 25.7734 46.2012L24.3172 44.7098C23.5586 43.9328 23.5586 42.6923 24.3172 41.9153L32.0546 33.991Z" fill="#8A8A8A"/>
</g>
</svg>
