<svg width="50" height="37" viewBox="0 0 50 37" fill="none" xmlns="http://www.w3.org/2000/svg">
<path d="M5.69249 15.2647C6.24022 13.9823 6.32825 12.8424 5.95657 11.845C5.5849 10.8476 4.94914 9.85024 4.0493 8.85284C2.75822 7.42799 1.90728 6.08328 1.49648 4.81872C1.08568 3.55416 1.01721 2.04916 1.29108 0.303711H5.86855C5.55556 1.65732 5.50665 2.76159 5.72183 3.6165C5.93701 4.47141 6.49452 5.39757 7.39437 6.39497C8.88107 8.03355 9.82981 9.48512 10.2406 10.7497C10.6514 12.0142 10.6612 13.5192 10.27 15.2647H5.69249ZM15.0822 15.2647C15.6299 13.9823 15.7277 12.8424 15.3756 11.845C15.0235 10.8476 14.3975 9.85024 13.4977 8.85284C12.2066 7.42799 11.3459 6.08328 10.9155 4.81872C10.4851 3.55416 10.4069 2.04916 10.6808 0.303711H15.2582C14.9452 1.65732 14.8963 2.76159 15.1115 3.6165C15.3267 4.47141 15.8842 5.39757 16.784 6.39497C18.2707 8.03355 19.2195 9.48512 19.6303 10.7497C20.0411 12.0142 20.0509 13.5192 19.6596 15.2647H15.0822ZM24.4718 15.2647C25.0196 13.9823 25.1174 12.8424 24.7653 11.845C24.4131 10.8476 23.7872 9.85024 22.8873 8.85284C21.5962 7.42799 20.7355 6.08328 20.3052 4.81872C19.8748 3.55416 19.7966 2.04916 20.0704 0.303711H24.6479C24.3349 1.65732 24.286 2.76159 24.5012 3.6165C24.7164 4.47141 25.2739 5.39757 26.1737 6.39497C27.6604 8.03355 28.6092 9.48512 29.02 10.7497C29.4308 12.0142 29.4405 13.5192 29.0493 15.2647H24.4718ZM7.04225 36.6375C5.08607 36.6375 3.42332 36.0141 2.05399 34.7674C0.684664 33.5207 0 32.0067 0 30.2257V19.5393H32.9225C33.1182 18.3281 33.6463 17.2684 34.507 16.3601C35.3678 15.4517 36.4241 14.8016 37.6761 14.4098L48.5329 11.097L50 15.1578L39.1432 18.4706C38.6737 18.6131 38.2923 18.8714 37.9988 19.2454C37.7054 19.6194 37.5587 20.038 37.5587 20.501V30.2257C37.5587 32.0067 36.874 33.5207 35.5047 34.7674C34.1354 36.0141 32.4726 36.6375 30.5164 36.6375H7.04225ZM7.04225 32.363H30.5164C31.1815 32.363 31.739 32.1581 32.189 31.7485C32.6389 31.3388 32.8639 30.8312 32.8639 30.2257V23.8138H4.69484V30.2257C4.69484 30.8312 4.9198 31.3388 5.36972 31.7485C5.81964 32.1581 6.37715 32.363 7.04225 32.363Z" fill="#4B4B4B"/>
</svg>
