<svg width="31" height="56" viewBox="0 0 31 56" fill="none" xmlns="http://www.w3.org/2000/svg">
<path d="M0.666687 55.7372V52.0953H27.3334V55.7372H0.666687ZM7.33335 48.4534C5.50002 48.4534 3.93058 47.7401 2.62502 46.3137C1.31946 44.8873 0.666687 43.1726 0.666687 41.1695V22.9598H27.3334C28.25 22.9598 29.0347 23.3164 29.6875 24.0297C30.3403 24.7429 30.6667 25.6002 30.6667 26.6018V32.0647C30.6667 33.0662 30.3403 33.9236 29.6875 34.6368C29.0347 35.35 28.25 35.7066 27.3334 35.7066H24V41.1695C24 43.1726 23.3472 44.8873 22.0417 46.3137C20.7361 47.7401 19.1667 48.4534 17.3334 48.4534H7.33335ZM7.33335 44.8114H17.3334C18.25 44.8114 19.0347 44.4548 19.6875 43.7416C20.3403 43.0284 20.6667 42.171 20.6667 41.1695V26.6018H4.00002V41.1695C4.00002 42.171 4.32641 43.0284 4.97919 43.7416C5.63196 44.4548 6.41669 44.8114 7.33335 44.8114ZM24 32.0647H27.3334V26.6018H24V32.0647ZM7.33335 44.8114H4.00002H20.6667H7.33335Z" fill="#4B4B4B"/>
<path d="M8.25 18.3904C8.05 18.6218 7.80833 18.7375 7.525 18.7375C7.24167 18.7375 7.00833 18.6218 6.825 18.3904C6.20833 17.6384 5.75 16.8622 5.45 16.062C5.15 15.2618 5 14.4278 5 13.5601C5 12.9237 5.08333 12.2537 5.25 11.5498C5.41667 10.846 5.7 9.93491 6.1 8.81651C6.43333 7.89094 6.66667 7.16783 6.8 6.6472C6.93333 6.12656 7 5.65414 7 5.22991C7 4.69 6.89583 4.179 6.6875 3.69693C6.47917 3.21486 6.14167 2.72315 5.675 2.2218C5.45833 2.00969 5.35 1.73973 5.35 1.41193C5.35 1.08412 5.45 0.804518 5.65 0.573125C5.83333 0.361014 6.05833 0.250138 6.325 0.240497C6.59167 0.230856 6.825 0.33209 7.025 0.544201C7.69167 1.25766 8.1875 2.00005 8.5125 2.77136C8.8375 3.54267 9 4.36219 9 5.22991C9 5.82768 8.92083 6.45919 8.7625 7.12445C8.60417 7.7897 8.33333 8.65261 7.95 9.71316C7.58333 10.7159 7.33333 11.4824 7.2 12.0126C7.06667 12.5429 7 13.0394 7 13.5022C7 14.0807 7.10417 14.6399 7.3125 15.1798C7.52083 15.7197 7.84167 16.2597 8.275 16.7996C8.45833 17.031 8.54583 17.3009 8.5375 17.6095C8.52917 17.918 8.43333 18.1783 8.25 18.3904ZM13.275 18.4193C13.075 18.6507 12.8333 18.7664 12.55 18.7664C12.2667 18.7664 12.025 18.6411 11.825 18.3904C11.2083 17.6384 10.75 16.8622 10.45 16.062C10.15 15.2618 10 14.4278 10 13.5601C10 12.9237 10.0833 12.2537 10.25 11.5498C10.4167 10.846 10.7 9.93491 11.1 8.81651C11.4333 7.89094 11.6667 7.16783 11.8 6.6472C11.9333 6.12656 12 5.65414 12 5.22991C12 4.69 11.8958 4.179 11.6875 3.69693C11.4792 3.21486 11.1417 2.72315 10.675 2.2218C10.4583 2.00969 10.35 1.73973 10.35 1.41193C10.35 1.08412 10.45 0.804518 10.65 0.573125C10.8333 0.361014 11.0583 0.250138 11.325 0.240497C11.5917 0.230856 11.825 0.33209 12.025 0.544201C12.6917 1.25766 13.1875 2.00005 13.5125 2.77136C13.8375 3.54267 14 4.36219 14 5.22991C14 5.82768 13.9208 6.45437 13.7625 7.10998C13.6042 7.7656 13.3333 8.63332 12.95 9.71316C12.5833 10.7159 12.3333 11.4872 12.2 12.0271C12.0667 12.567 12 13.0684 12 13.5311C12 14.1096 12.1083 14.664 12.325 15.1943C12.5417 15.7246 12.8667 16.2597 13.3 16.7996C13.4833 17.0117 13.5708 17.2816 13.5625 17.6095C13.5542 17.9373 13.4583 18.2072 13.275 18.4193ZM18.275 18.4193C18.075 18.6507 17.8333 18.7664 17.55 18.7664C17.2667 18.7664 17.025 18.6411 16.825 18.3904C16.2083 17.6384 15.75 16.8622 15.45 16.062C15.15 15.2618 15 14.4278 15 13.5601C15 12.9237 15.0833 12.2537 15.25 11.5498C15.4167 10.846 15.7 9.93491 16.1 8.81651C16.4333 7.89094 16.6667 7.16783 16.8 6.6472C16.9333 6.12656 17 5.65414 17 5.22991C17 4.69 16.8958 4.179 16.6875 3.69693C16.4792 3.21486 16.1417 2.72315 15.675 2.2218C15.4583 2.00969 15.35 1.73973 15.35 1.41193C15.35 1.08412 15.45 0.804518 15.65 0.573125C15.8333 0.361014 16.0583 0.250138 16.325 0.240497C16.5917 0.230856 16.825 0.33209 17.025 0.544201C17.6917 1.25766 18.1875 2.00005 18.5125 2.77136C18.8375 3.54267 19 4.36219 19 5.22991C19 5.82768 18.9208 6.45919 18.7625 7.12445C18.6042 7.7897 18.3333 8.65261 17.95 9.71316C17.5833 10.6966 17.3333 11.4582 17.2 11.9982C17.0667 12.5381 17 13.0394 17 13.5022C17 14.0807 17.1083 14.6399 17.325 15.1798C17.5417 15.7197 17.8667 16.2597 18.3 16.7996C18.4833 17.031 18.5708 17.3057 18.5625 17.6239C18.5542 17.9421 18.4583 18.2072 18.275 18.4193Z" fill="#4B4B4B"/>
</svg>
