<svg width="23" height="28" viewBox="0 0 23 28" fill="none" xmlns="http://www.w3.org/2000/svg">
<path d="M8.52871 14.3051C9.59623 15.3509 11.3041 15.3509 12.3716 14.3051L15.6756 11.0684C16.2742 10.4819 16.2742 9.51808 15.6756 8.93162C15.0941 8.36195 14.1638 8.36195 13.5823 8.93162L11.3433 11.125C10.8471 11.6111 10.0532 11.6111 9.55701 11.125C9.06079 10.6389 8.2669 10.6389 7.77068 11.125L7.61719 11.2754C7.01855 11.8618 7.01855 12.8257 7.61719 13.4121L8.52871 14.3051ZM8.17666 20.1669C9.89124 21.955 12.7383 21.9625 14.4551 20.1765C15.5411 19.0466 16.4444 17.9565 17.1649 16.9062C18.494 14.9688 19.1585 13.2188 19.1585 11.6562C19.1585 9.46875 18.3983 7.60938 16.8778 6.07812C15.3573 4.54688 13.5018 3.78125 11.3114 3.78125C9.12106 3.78125 7.26561 4.54688 5.7451 6.07812C4.22459 7.60938 3.46434 9.46875 3.46434 11.6562C3.46434 13.2188 4.1289 14.9635 5.45801 16.8906C6.18045 17.9381 7.08667 19.0302 8.17666 20.1669ZM14.3923 24.8951C12.6429 26.4842 9.98001 26.4842 8.23059 24.8951C5.92574 22.8015 4.12433 20.8417 2.82636 19.0156C0.997501 16.4427 0.0830688 13.9896 0.0830688 11.6562C0.0830688 8.55208 1.17826 5.91146 3.36864 3.73438C5.55903 1.55729 8.20663 0.46875 11.3114 0.46875C14.4163 0.46875 17.0639 1.55729 19.2542 3.73438C21.4446 5.91146 22.5398 8.55208 22.5398 11.6562C22.5398 13.9896 21.6254 16.4427 19.7965 19.0156C18.4986 20.8417 16.6971 22.8015 14.3923 24.8951Z" fill="#8A8A8A"/>
</svg>
