<svg width="39" height="38" viewBox="0 0 39 38" fill="none" xmlns="http://www.w3.org/2000/svg">
<path d="M17.7119 25.27C18.4464 26.0045 19.6373 26.0045 20.3719 25.27L24.5205 21.1213C25.6921 19.9497 25.6921 18.0503 24.5205 16.8787L20.3719 12.73C19.6373 11.9955 18.4464 11.9955 17.7119 12.73L17.2723 13.1696C16.7805 13.6614 16.7805 14.4586 17.2723 14.9504C18.0655 15.7437 17.5037 17.1 16.3819 17.1H13.3419C12.2925 17.1 11.4419 17.9507 11.4419 19C11.4419 20.0493 12.2925 20.9 13.3419 20.9H16.3819C17.5037 20.9 18.0655 22.2563 17.2723 23.0496C16.7805 23.5414 16.7805 24.3386 17.2723 24.8304L17.7119 25.27ZM19.0419 38C16.4135 38 13.9435 37.5012 11.6319 36.5037C9.3202 35.5062 7.30937 34.1525 5.59937 32.4425C3.88937 30.7325 2.53562 28.7217 1.53812 26.41C0.54062 24.0983 0.0418701 21.6283 0.0418701 19C0.0418701 16.3717 0.54062 13.9017 1.53812 11.59C2.53562 9.27833 3.88937 7.2675 5.59937 5.5575C7.30937 3.8475 9.3202 2.49375 11.6319 1.49625C13.9435 0.49875 16.4135 0 19.0419 0C21.6702 0 24.1402 0.49875 26.4519 1.49625C28.7635 2.49375 30.7744 3.8475 32.4844 5.5575C34.1944 7.2675 35.5481 9.27833 36.5456 11.59C37.5431 13.9017 38.0419 16.3717 38.0419 19C38.0419 21.6283 37.5431 24.0983 36.5456 26.41C35.5481 28.7217 34.1944 30.7325 32.4844 32.4425C30.7744 34.1525 28.7635 35.5062 26.4519 36.5037C24.1402 37.5012 21.6702 38 19.0419 38ZM19.0419 34.2C23.2852 34.2 26.8794 32.7275 29.8244 29.7825C32.7694 26.8375 34.2419 23.2433 34.2419 19C34.2419 14.7567 32.7694 11.1625 29.8244 8.2175C26.8794 5.2725 23.2852 3.8 19.0419 3.8C14.7985 3.8 11.2044 5.2725 8.25937 8.2175C5.31437 11.1625 3.84187 14.7567 3.84187 19C3.84187 23.2433 5.31437 26.8375 8.25937 29.7825C11.2044 32.7275 14.7985 34.2 19.0419 34.2Z" fill="#28D6DB"/>
</svg>
