<svg xmlns="http://www.w3.org/2000/svg" version="1.1" xmlns:xlink="http://www.w3.org/1999/xlink" width="512" height="512" x="0" y="0" viewBox="0 0 512.106 512.106" style="enable-background:new 0 0 512 512" xml:space="preserve" class=""><g><path fill="#a0cdd7" d="M83.318 410.65c8.064 23.583 23.257 51.648 51.875 70.93 15.681 2.963 64.058 18.918 84.478 17.15 15.635-1.353 21.171-24.614 14.46-31.565-1.184-1.226-66.931-64.164-150.813-56.515z" opacity="1" data-original="#94d8e6" class=""></path><path fill="#78becf" d="M252.385 470.554 155.24 360.446a30.001 30.001 0 0 0-20.716-10.1l-14.556-.865-5.081 1.899-40.628 15.183s.24 6.823 2.148 17.428a183.3 183.3 0 0 0 6.911 26.659c9.986 6.992 24.299 16.194 34.971 21.729 5.216 12.786 17.785 21.821 32.425 21.821 4.76 0 9.437-.986 13.747-2.833 15.462 4.847 31.341 8.408 47.524 10.698l2.931 2.693c5.211 5.906 1.861 15.255-5.917 16.496-28.885 4.608-53.244 4.212-73.806.327 23.973 16.153 57.353 26.138 103.838 22.143 16.393-1.41 24.239-20.832 13.354-33.17z" opacity="1" data-original="#70c6db" class=""></path><path fill="#f0f7f9" d="M442.583 94.325c43.206-58.586 19.653-84.145 19.653-84.145a8.667 8.667 0 0 0-.356.424c-16.812 21.395-54.68 4.758-63.032 51.272-45.52-11.674-46.128 29.844-72.603 36.444-4.156 1.036-6.535 4.9-6.079 8.689.167 1.388 22.836 22.634 83.531 11.568 20.54 41.412 17.19 71.786 7.09 92.753-11.679 24.245-38.524 37.286-64.96 32.252l-128.461-27.978c.036-.422.065-.846.065-1.277 0-8.284-6.716-15-15-15-6.51 0-12.035 4.155-14.11 9.951l-60.303-13.133c.034-.415.063-.832.063-1.256 0-8.284-6.716-15-15-15-6.503 0-12.023 4.145-14.103 9.931l-36.38-7.923c-28.044-6.086-54.544 15.279-54.544 43.976v6.789c0 48.168 18.579 92.592 49.978 128.229 53.404 53.038 116.617 74.233 197.522 74.233 137.243 0 238.5-85.123 238.5-202.463-.001-52.797-13.207-97.895-51.471-138.336z" opacity="1" data-original="#bae6ef" class=""></path><path fill="#a0cdd7" d="M320.178 107.007a7.843 7.843 0 0 0 1.682 3.994c31.349 39.207 54.959 17.955 81.837 7.576-1.744-5.661-3.966-11.574-6.729-17.744-1.687-3.768-6.112-5.453-9.888-3.786-20.265 8.948-43.747 22.437-66.902 9.96z" opacity="1" data-original="#94d8e6" class=""></path><path fill="#a0cdd7" d="M444.221 94.42c20.214-22.727 55.503-34.651 30.99-82.612-2.573-5.035-9.262-5.739-12.964-1.616 7.006 29.972-15.522 42.293-32.727 58.769a7.533 7.533 0 0 0-.279 10.625c34.279 36.418 54.812 82.692 54.812 133.077 0 117.34-111.257 212.463-248.5 212.463-69.808 0-132.621-24.62-177.507-64.246a221.788 221.788 0 0 0 8.713 9.338 14.94 14.94 0 0 0-2.671 10.807c.934 6.861 6.637 12.263 13.536 12.858 4.408.38 8.445-1.164 11.409-3.864 14.156 11.045 29.824 20.688 46.704 28.698-.005.162-.024.321-.024.485 0 8.284 6.716 15 15 15 4.348 0 8.252-1.861 10.992-4.817 28.909 10.139 60.582 15.742 93.848 15.742 137.243 0 248.5-95.123 248.5-212.463 0-52.8-22.547-101.085-59.832-138.244z" opacity="1" data-original="#94d8e6" class=""></path><path fill="#f0f7f9" d="M245.906 366.562s.453 12.916 5.085 30.844c19.11 45.547 31.739 100.889 164.21 73.83L284.947 349.582l-2.806-.101z" opacity="1" data-original="#bae6ef" class=""></path><path fill="#a0cdd7" d="m410.01 454.662-83.123-94.216a30.001 30.001 0 0 0-20.716-10.1l-3.785-.136c-6.582-.237-10.251 7.518-5.894 12.457l89.675 101.642c5.033 7.869 23.843 17.281 23.843-9.647z" opacity="1" data-original="#94d8e6" class=""></path><path fill="#88bfd1" d="m384.803 464.763-.4-.454c-76.134 3.828-115.179-31.208-135.177-66.903 6.587 25.494 21.637 61.119 55.861 84.176 44.406 22.919 125.937 27.89 79.716-16.819z" opacity="1" data-original="#dcf2f6" class=""></path><path fill="#f0f7f9" d="m424.032 470.554-14.021-15.893c-3.118 4.881-8.347 8.471-15.015 9.048-2.999.26-5.937.454-8.829.6l.4.454c5.201 5.895 1.884 15.247-5.879 16.486-28.893 4.609-53.266 4.219-73.836.334C330.85 497.75 364.27 507.74 410.83 503.71c16.321-1.413 24.04-20.871 13.202-33.156z" opacity="1" data-original="#bae6ef" class=""></path><path fill="#88bfd1" d="M77.436 150.884c6.588-6.588 4.824-14.118-1.408-19.384a14.973 14.973 0 0 0-4.353-.647c-8.284 0-15 6.716-15 15 0 1.514.229 2.975.647 4.353 3.996 4.678 13.525 7.266 20.114.678z" opacity="1" data-original="#dcf2f6" class=""></path><path fill="#f0f7f9" d="M76.027 131.5c.417 1.378.647 2.838.647 4.353 0 8.284-6.716 15-15 15-1.515 0-2.975-.229-4.353-.647 1.866 6.16 7.584 10.647 14.353 10.647 8.284 0 15-6.716 15-15 0-6.769-4.486-12.487-10.647-14.353z" opacity="1" data-original="#bae6ef" class=""></path><path fill="#88bfd1" d="M99.708 53.102c6.588-6.588 4.824-14.118-1.408-19.384a14.973 14.973 0 0 0-4.353-.647c-8.284 0-15 6.716-15 15 0 1.514.229 2.975.647 4.353 3.996 4.678 13.526 7.267 20.114.678z" opacity="1" data-original="#dcf2f6" class=""></path><path fill="#f0f7f9" d="M98.299 33.719c.417 1.378.647 2.838.647 4.353 0 8.284-6.716 15-15 15-1.515 0-2.975-.229-4.353-.647 1.866 6.16 7.584 10.647 14.353 10.647 8.284 0 15-6.716 15-15 0-6.77-4.486-12.487-10.647-14.353z" opacity="1" data-original="#bae6ef" class=""></path><path fill="#88bfd1" d="M160.425 90.012c0-2.362-1.342-8.54-8.482-14.089a20.805 20.805 0 0 0-6.741-1.134c-11.529 0-20.875 9.346-20.875 20.874 0 2.362.411 4.624 1.134 6.74 4.563 6.597 11.727 8.482 14.089 8.482 11.529.001 20.875-9.344 20.875-20.873z" opacity="1" data-original="#dcf2f6" class=""></path><path fill="#f0f7f9" d="M151.943 75.924a20.804 20.804 0 0 1 1.134 6.74c0 11.529-9.346 20.874-20.875 20.874-2.362 0-4.624-.411-6.741-1.134 2.806 8.217 10.574 14.134 19.741 14.134 11.529 0 20.875-9.346 20.875-20.874 0-9.166-5.918-16.935-14.134-19.74z" opacity="1" data-original="#bae6ef" class=""></path><path d="M137.219 352.187a7.5 7.5 0 0 0-9.443 4.829c-3.817 11.804 2.68 24.514 14.484 28.332a22.424 22.424 0 0 0 6.907 1.093c9.497 0 18.349-6.066 21.425-15.577a7.5 7.5 0 0 0-4.827-9.444 7.498 7.498 0 0 0-9.444 4.827c-1.272 3.935-5.505 6.101-9.445 4.829-3.935-1.272-6.101-5.509-4.828-9.444a7.5 7.5 0 0 0-4.829-9.445zM88.643 303.858a7.5 7.5 0 0 0-10.607 0c-8.771 8.772-8.772 23.046.001 31.82 4.386 4.386 10.147 6.579 15.909 6.579s11.523-2.193 15.91-6.58a7.5 7.5 0 0 0-10.607-10.606c-2.924 2.923-7.682 2.924-10.605 0-2.925-2.924-2.925-7.682 0-10.606a7.501 7.501 0 0 0-.001-10.607z" fill="#000000" opacity="1" data-original="#000000" class=""></path><path d="M454.669 94.411c2.754-2.64 5.707-5.212 8.764-7.876 18-15.685 40.401-35.205 18.456-78.141-2.403-4.702-6.962-7.812-12.193-8.32-5.292-.515-10.411 1.692-13.714 5.896-4.884 6.215-12.671 8.383-21.688 10.893-15.095 4.202-33.585 9.35-41.122 36.187-27.39-4.239-39.707 10.524-49.765 22.576-6.042 7.24-11.26 13.492-18.977 15.416-5.19 1.294-9.305 5.07-11.006 10.101-1.684 4.98-.72 10.416 2.578 14.541 29.936 37.439 55.459 25.679 77.979 15.302 1.974-.909 3.98-1.834 5.994-2.727 13.595 30.339 14.965 57.166 4.054 79.816-10.106 20.98-33.411 32.549-56.706 28.158L224.4 209.461c-2.229-10.075-11.233-17.633-21.97-17.633-7.151 0-13.755 3.422-17.936 8.942L135.045 190c-2.237-10.064-11.236-17.611-21.965-17.611-7.142 0-13.739 3.414-17.922 8.924l-30.971-6.746c-15.599-3.383-31.664.419-44.087 10.435S.553 209.916.553 225.874v6.789c0 21.184 3.467 42.105 10.309 62.236a22.39 22.39 0 0 0-1.637 8.398c0 9.372 5.846 17.661 14.346 20.971 8.978 16.946 20.428 32.835 34.106 47.329a22.375 22.375 0 0 0-1.231 7.342c0 10.127 6.727 18.711 15.947 21.523 5.773 21.758 17.804 51.432 42.709 74.69 26.305 24.565 61.196 36.954 103.938 36.954 6.733 0 13.669-.308 20.789-.924 10.366-.897 19.211-7.466 23.085-17.142 3.887-9.711 2.008-20.612-4.905-28.448l-11.565-13.109c3.032.092 6.069.141 9.109.141 3.893 0 7.809-.095 11.694-.245 6.01 8.776 13.264 17.309 22.033 25.075 26.011 23.034 60.062 34.65 101.431 34.65 6.729 0 13.653-.307 20.766-.923 10.366-.897 19.211-7.466 23.085-17.142 3.887-9.711 2.008-20.612-4.905-28.448l-40.105-45.457c37.736-19.94 68.847-47.927 90.288-81.315a7.5 7.5 0 0 0-12.621-8.106c-20.647 32.153-50.983 59-87.891 77.832l-46.816-53.063c-6.56-7.435-15.998-12.036-25.895-12.625l-14.557-.865a7.484 7.484 0 0 0-7.932 7.042 7.5 7.5 0 0 0 7.041 7.932l14.557.865c5.938.353 11.602 3.114 15.537 7.575l79.565 90.183c-66.495 7.52-114.157-12.355-141.767-59.186a7.531 7.531 0 0 0-.809-1.115c-4.274-16.574-4.836-28.593-4.852-28.992-.146-4.139-3.638-7.363-7.757-7.231a7.5 7.5 0 0 0-7.233 7.757c.068 1.977 1.533 36.008 19.917 70.768-.925.009-1.852.033-2.774.033-21.593 0-42.988-2.437-63.594-7.244a7.499 7.499 0 1 0-3.408 14.607 291.183 291.183 0 0 0 36.654 6.095l21.556 24.431c3.192 3.619 4.024 8.46 2.228 12.95-1.783 4.455-5.69 7.36-10.452 7.772-103.378 8.951-138.747-54.169-150.814-96.592.34-.145.678-.294 1.01-.456 12.388 9.239 25.776 17.431 39.915 24.423 2.057 10.301 11.169 18.086 22.065 18.086 6.229 0 12.24-2.631 16.492-7.219a7.5 7.5 0 1 0-11-10.197c-1.444 1.558-3.395 2.416-5.492 2.416-4.088 0-7.422-3.287-7.499-7.356a7.5 7.5 0 0 0-4.261-7.404c-16.244-7.708-31.48-17.079-45.288-27.852a7.5 7.5 0 0 0-9.674.377 7.47 7.47 0 0 1-5.045 1.973c-4.136 0-7.5-3.364-7.5-7.5a7.42 7.42 0 0 1 1.411-4.354 7.5 7.5 0 0 0-.759-9.647c-15.05-15.223-27.381-32.16-36.65-50.342a7.497 7.497 0 0 0-5.21-3.947c-3.484-.697-6.013-3.789-6.013-7.351 0-1.399.381-2.723 1.132-3.933a7.5 7.5 0 0 0 .688-6.483c-6.656-18.583-10.167-37.922-10.462-57.524l94.683 18.007c3.813.727 7.756 1.478 10.755 3.074 4.452 2.369 7.914 7.069 11.578 12.046 1.101 1.494 2.238 3.039 3.427 4.552 15.908 20.253 40.767 33.008 66.496 34.119a7.5 7.5 0 0 0 .646-14.986c-21.415-.924-42.105-11.541-55.346-28.398-1.045-1.33-2.065-2.715-3.146-4.182-4.288-5.823-9.147-12.422-16.61-16.393-5.005-2.664-10.311-3.675-14.995-4.568l-97.074-18.462c1.4-9.191 6.148-17.542 13.52-23.486 8.873-7.154 20.352-9.872 31.485-7.455l36.38 7.923a7.497 7.497 0 0 0 8.653-4.791 7.512 7.512 0 0 1 7.046-4.968c4.136 0 7.5 3.364 7.5 7.5 0 .211-.021.417-.038.624a7.5 7.5 0 0 0 5.878 7.96l60.304 13.133a7.504 7.504 0 0 0 8.657-4.8 7.51 7.51 0 0 1 7.049-4.979c4.136 0 7.5 3.364 7.5 7.5 0 .221-.021.438-.038.654a7.5 7.5 0 0 0 5.878 7.951l128.461 27.978.193.04c29.979 5.707 60.054-9.244 73.119-36.365 13.778-28.603 11.381-62.025-7.128-99.341a7.501 7.501 0 0 0-9.421-3.664c-4.576 1.767-9.006 3.809-13.29 5.783-21.701 10-37.381 17.225-59.986-11.045-.1-.125-.138-.211-.084-.37.09-.267.324-.326.424-.351 12.468-3.107 20.117-12.273 26.865-20.359 10.325-12.373 18.484-22.14 42.06-16.096a7.497 7.497 0 0 0 9.245-5.939c4.34-24.165 16.585-27.573 32.088-31.889 10.097-2.811 21.54-5.996 29.461-16.076.062-.078.203-.258.471-.234.157.016.215.08.285.217 16.611 32.5 3.371 44.037-14.954 60.005-5.077 4.424-10.327 8.999-14.962 14.209a7.5 7.5 0 0 0 .311 10.297c37.16 37.035 57.626 84.244 57.626 132.93 0 25.305-5.36 50.006-15.932 73.415a7.5 7.5 0 1 0 13.67 6.173c11.454-25.362 17.262-52.14 17.262-79.588-.002-50.387-20.146-99.209-56.886-138.246zm-79.606 377.676c11.644 0 24.205-.938 37.723-2.944l5.622 6.372c3.192 3.619 4.024 8.46 2.228 12.95-1.783 4.455-5.69 7.36-10.452 7.772-46.519 4.027-83.823-6.04-110.857-29.924-8.715-7.699-15.781-16.345-21.51-25.246 21.951 17.751 53.105 31.02 97.246 31.02z" fill="#000000" opacity="1" data-original="#000000" class=""></path><path d="M71.674 168.353c12.406 0 22.5-10.093 22.5-22.5 0-12.406-10.094-22.5-22.5-22.5s-22.5 10.093-22.5 22.5 10.094 22.5 22.5 22.5zm0-29.999c4.136 0 7.5 3.364 7.5 7.5s-3.364 7.5-7.5 7.5-7.5-3.364-7.5-7.5 3.365-7.5 7.5-7.5zM93.946 70.572c12.406 0 22.5-10.093 22.5-22.5 0-12.406-10.094-22.5-22.5-22.5s-22.5 10.093-22.5 22.5 10.094 22.5 22.5 22.5zm0-30c4.136 0 7.5 3.364 7.5 7.5s-3.364 7.5-7.5 7.5-7.5-3.364-7.5-7.5c0-4.135 3.364-7.5 7.5-7.5zM145.202 124.039c15.646 0 28.375-12.729 28.375-28.375S160.848 67.29 145.202 67.29s-28.374 12.729-28.374 28.374 12.728 28.375 28.374 28.375zm0-41.749c7.375 0 13.375 6 13.375 13.374s-6 13.375-13.375 13.375c-7.374 0-13.374-6-13.374-13.375s6-13.374 13.374-13.374zM202.844 246.619a7.5 7.5 0 0 0-7.5 7.5v13.588c0 4.142 3.357 7.5 7.5 7.5s7.5-3.358 7.5-7.5v-13.588a7.5 7.5 0 0 0-7.5-7.5z" fill="#000000" opacity="1" data-original="#000000" class=""></path></g></svg>