<svg width="975" height="975" viewBox="0 0 975 975" xmlns="http://www.w3.org/2000/svg">
<circle cx="487.5" cy="487.5" r="487.5" fill="#E0F7FA"/>
<path d="M259.876 690.202C270.484 721.225 290.47 758.144 328.116 783.509C348.744 787.406 412.383 808.395 439.245 806.069C459.813 804.289 467.095 773.69 458.267 764.546C456.71 762.933 370.221 680.14 259.876 690.202Z" fill="#A0CDD7"/>
<path d="M482.28 769.004L354.488 624.159C351.045 620.258 346.865 617.075 342.189 614.795C337.512 612.515 332.43 611.182 327.236 610.873L308.088 609.735L301.404 612.233L247.959 632.206C247.959 632.206 248.274 641.182 250.784 655.132C252.931 667.033 255.97 678.756 259.876 690.202C273.012 699.399 291.84 711.505 305.879 718.786C312.741 735.605 329.275 747.491 348.534 747.491C354.795 747.491 360.948 746.194 366.618 743.764C386.958 750.14 407.846 754.825 429.134 757.837L432.99 761.38C439.845 769.149 435.438 781.447 425.206 783.08C387.209 789.142 355.165 788.621 328.116 783.51C359.652 804.759 403.563 817.894 464.713 812.639C486.278 810.784 496.599 785.235 482.28 769.004Z" fill="#78BECF"/>
<path d="M732.482 274.082C789.318 197.014 758.335 163.391 758.335 163.391C758.173 163.572 758.017 163.758 757.867 163.949C735.751 192.094 685.936 170.208 674.949 231.396C615.068 216.039 614.269 270.655 579.441 279.338C573.974 280.7 570.845 285.783 571.444 290.768C571.664 292.594 601.485 320.542 681.328 305.985C708.348 360.462 703.941 400.418 690.655 428C675.291 459.894 639.977 477.049 605.201 470.427L436.213 433.622C436.26 433.067 436.299 432.51 436.299 431.943C436.299 421.045 427.464 412.21 416.566 412.21C408.003 412.21 400.735 417.676 398.005 425.301L318.678 408.025C318.722 407.479 318.76 406.93 318.76 406.372C318.76 395.475 309.926 386.64 299.028 386.64C290.474 386.64 283.212 392.093 280.476 399.704L232.619 389.282C195.727 381.276 160.867 409.381 160.867 447.131V456.062C160.867 519.426 185.308 577.865 226.612 624.745C296.864 694.515 380.02 722.397 486.449 722.397C666.989 722.397 800.191 610.419 800.191 456.061C800.189 386.607 782.817 327.282 732.482 274.082Z" fill="#F0F7F9"/>
<path d="M571.46 290.765C571.69 292.69 572.457 294.511 573.673 296.019C614.912 347.595 645.97 319.639 681.328 305.985C679.034 298.538 676.111 290.76 672.476 282.643C670.257 277.687 664.436 275.47 659.468 277.663C632.81 289.434 601.92 307.179 571.46 290.765Z" fill="#A0CDD7"/>
<path d="M734.636 274.207C761.228 244.31 807.65 228.625 775.403 165.533C772.018 158.909 763.219 157.983 758.349 163.407C767.566 202.835 737.93 219.043 715.298 240.716C713.401 242.524 712.298 245.01 712.229 247.629C712.16 250.249 713.131 252.788 714.931 254.693C760.024 302.601 787.035 363.473 787.035 429.754C787.035 584.112 640.678 709.245 460.138 709.245C368.307 709.245 285.677 676.857 226.631 624.73C230.333 628.934 234.155 633.03 238.093 637.014C235.134 641.123 233.875 646.216 234.579 651.231C235.808 660.256 243.31 667.362 252.385 668.145C258.184 668.645 263.495 666.614 267.394 663.062C286.016 677.592 306.626 690.277 328.832 700.814C328.825 701.027 328.8 701.236 328.8 701.452C328.8 712.349 337.635 721.184 348.532 721.184C354.252 721.184 359.388 718.736 362.992 714.847C401.021 728.185 442.687 735.556 486.447 735.556C666.988 735.556 813.344 610.423 813.344 456.065C813.344 386.607 783.684 323.089 734.636 274.207Z" fill="#A0CDD7"/>
<path d="M473.757 632.205C473.757 632.205 474.353 649.195 480.446 672.779C505.585 732.696 522.198 805.497 696.461 769.901L525.115 609.868L521.423 609.735L473.757 632.205Z" fill="#F0F7F9"/>
<path d="M689.632 748.099L580.286 624.159C576.844 620.258 572.664 617.075 567.987 614.795C563.31 612.515 558.228 611.182 553.034 610.873L548.055 610.694C539.397 610.382 534.57 620.584 540.302 627.081L658.267 760.789C664.888 771.141 689.632 783.522 689.632 748.099Z" fill="#A0CDD7"/>
<path d="M656.473 761.386L655.947 760.789C555.794 765.825 504.431 719.735 478.124 672.779C486.789 706.316 506.587 753.18 551.608 783.511C610.024 813.661 717.276 820.2 656.473 761.386Z" fill="#88BFD1"/>
<path d="M708.078 769.004L689.634 748.097C685.532 754.518 678.654 759.241 669.882 760C665.937 760.342 662.072 760.597 658.268 760.789L658.794 761.386C665.636 769.141 661.272 781.443 651.06 783.073C613.052 789.136 580.99 788.623 553.93 783.513C585.499 804.78 629.462 817.922 690.711 812.62C712.181 810.761 722.335 785.165 708.078 769.004Z" fill="#F0F7F9"/>
<path d="M252.138 348.485C260.804 339.818 258.484 329.913 250.286 322.985C248.429 322.421 246.5 322.134 244.559 322.134C233.662 322.134 224.827 330.969 224.827 341.866C224.827 343.858 225.128 345.78 225.678 347.593C230.935 353.746 243.47 357.151 252.138 348.485Z" fill="#88BFD1"/>
<path d="M250.285 322.985C250.833 324.798 251.136 326.719 251.136 328.712C251.136 339.609 242.301 348.444 231.403 348.444C229.41 348.444 227.49 348.143 225.677 347.593C228.132 355.696 235.654 361.599 244.558 361.599C255.456 361.599 264.29 352.764 264.29 341.866C264.29 332.962 258.389 325.44 250.285 322.985Z" fill="#F0F7F9"/>
<path d="M281.436 219.854C290.103 211.188 287.782 201.282 279.584 194.355C277.728 193.791 275.798 193.504 273.858 193.504C262.96 193.504 254.126 202.339 254.126 213.236C254.126 215.228 254.427 217.15 254.977 218.962C260.233 225.116 272.77 228.522 281.436 219.854Z" fill="#88BFD1"/>
<path d="M279.583 194.356C280.131 196.169 280.434 198.09 280.434 200.083C280.434 210.98 271.599 219.815 260.702 219.815C258.709 219.815 256.788 219.514 254.975 218.964C257.43 227.067 264.952 232.97 273.856 232.97C284.754 232.97 293.589 224.135 293.589 213.237C293.589 204.332 287.687 196.811 279.583 194.356Z" fill="#F0F7F9"/>
<path d="M361.308 268.409C361.308 265.301 359.543 257.174 350.15 249.875C347.297 248.892 344.301 248.388 341.283 248.383C326.117 248.383 313.822 260.678 313.822 275.842C313.822 278.95 314.363 281.925 315.314 284.709C321.316 293.387 330.74 295.867 333.848 295.867C349.014 295.868 361.308 283.575 361.308 268.409Z" fill="#88BFD1"/>
<path d="M350.15 249.876C351.133 252.729 351.637 255.725 351.642 258.742C351.642 273.909 339.348 286.202 324.182 286.202C321.074 286.202 318.099 285.661 315.314 284.71C319.005 295.519 329.224 303.303 341.283 303.303C356.449 303.303 368.743 291.009 368.743 275.844C368.743 263.786 360.958 253.566 350.15 249.876Z" fill="#F0F7F9"/>
<path d="M330.781 613.295C328.292 612.49 325.584 612.707 323.255 613.898C320.925 615.09 319.164 617.158 318.359 619.647C313.338 635.175 321.885 651.895 337.413 656.917C340.347 657.869 343.413 658.354 346.499 658.355C358.992 658.355 370.636 650.376 374.683 637.864C375.488 635.374 375.271 632.667 374.081 630.337C372.89 628.007 370.822 626.246 368.333 625.441C367.1 625.041 365.801 624.889 364.51 624.992C363.218 625.095 361.959 625.452 360.806 626.042C359.652 626.631 358.626 627.443 357.786 628.429C356.946 629.415 356.308 630.558 355.91 631.79C354.236 636.967 348.668 639.816 343.485 638.143C338.308 636.47 335.459 630.896 337.134 625.719C337.533 624.487 337.685 623.187 337.581 621.895C337.478 620.604 337.121 619.345 336.531 618.191C335.941 617.037 335.13 616.011 334.143 615.171C333.157 614.331 332.014 613.693 330.781 613.295ZM266.88 549.719C265.964 548.803 264.877 548.076 263.68 547.58C262.483 547.084 261.2 546.829 259.904 546.829C258.608 546.829 257.325 547.084 256.128 547.58C254.931 548.076 253.843 548.803 252.927 549.719C241.389 561.258 241.388 580.035 252.929 591.577C258.698 597.347 266.277 600.232 273.856 600.232C281.436 600.232 289.015 597.347 294.786 591.576C296.623 589.723 297.65 587.218 297.645 584.609C297.639 581.999 296.6 579.499 294.755 577.654C292.91 575.809 290.409 574.77 287.8 574.765C285.191 574.759 282.685 575.787 280.832 577.624C276.986 581.469 270.727 581.471 266.882 577.624C263.034 573.778 263.034 567.519 266.882 563.672C268.732 561.822 269.771 559.312 269.771 556.695C269.77 554.079 268.731 551.569 266.88 549.719Z" fill="black"/>
<path d="M748.381 274.195C752.004 270.723 755.888 267.339 759.91 263.835C783.588 243.201 813.056 217.523 784.188 161.042C781.027 154.856 775.03 150.765 768.149 150.097C761.187 149.419 754.453 152.323 750.108 157.853C743.683 166.029 733.44 168.881 721.578 172.183C701.721 177.71 677.397 184.482 667.483 219.786C631.452 214.21 615.249 233.63 602.018 249.484C594.07 259.008 587.205 267.233 577.054 269.764C570.227 271.466 564.813 276.433 562.576 283.051C560.36 289.602 561.629 296.753 565.967 302.18C605.347 351.43 638.922 335.96 668.547 322.309C671.144 321.113 673.783 319.897 676.432 318.722C694.316 358.632 696.118 393.923 681.765 423.718C668.471 451.317 637.813 466.536 607.169 460.759L445.466 425.541C442.534 412.288 430.69 402.346 416.565 402.346C407.158 402.346 398.471 406.847 392.971 414.109L327.922 399.941C324.979 386.702 313.141 376.774 299.027 376.774C289.632 376.774 280.954 381.265 275.451 388.513L234.709 379.639C214.189 375.189 193.056 380.19 176.714 393.366C160.371 406.542 151 426.14 151 447.132V456.063C151 483.93 155.561 511.451 164.561 537.933C163.14 541.443 162.409 545.194 162.408 548.981C162.408 561.31 170.098 572.214 181.28 576.568C193.09 598.86 208.152 619.762 226.146 638.828C225.07 641.935 224.523 645.199 224.526 648.486C224.526 661.808 233.375 673.1 245.504 676.799C253.098 705.422 268.925 744.457 301.687 775.053C336.291 807.368 382.189 823.665 438.415 823.665C447.273 823.665 456.397 823.26 465.763 822.449C479.399 821.269 491.035 812.628 496.131 799.9C501.244 787.125 498.772 772.785 489.678 762.477L474.465 745.232C478.453 745.353 482.448 745.418 486.448 745.418C491.569 745.418 496.72 745.293 501.831 745.095C509.737 756.64 519.279 767.865 530.815 778.081C565.032 808.382 609.825 823.662 664.245 823.662C673.097 823.662 682.206 823.258 691.563 822.448C705.199 821.268 716.834 812.627 721.93 799.898C727.044 787.124 724.572 772.784 715.478 762.475L662.721 702.678C712.362 676.447 753.288 639.631 781.493 595.709C782.895 593.508 783.368 590.84 782.808 588.291C782.247 585.741 780.699 583.518 778.503 582.107C776.307 580.697 773.641 580.214 771.09 580.765C768.538 581.316 766.309 582.855 764.89 585.046C737.729 627.343 697.823 662.659 649.271 687.433L587.686 617.629C579.056 607.849 566.641 601.796 553.621 601.021L534.472 599.883C533.178 599.804 531.881 599.98 530.655 600.403C529.43 600.826 528.3 601.487 527.33 602.347C526.361 603.208 525.571 604.252 525.006 605.419C524.441 606.586 524.111 607.853 524.037 609.147C523.882 611.759 524.771 614.326 526.508 616.282C528.245 618.239 530.688 619.426 533.3 619.581L552.449 620.719C560.26 621.184 567.711 624.816 572.888 630.684L677.554 749.318C590.081 759.21 527.383 733.065 491.062 671.46C490.753 670.94 490.397 670.449 489.998 669.993C484.376 648.19 483.636 632.38 483.615 631.855C483.423 626.41 478.83 622.169 473.411 622.343C470.796 622.434 468.325 623.561 466.541 625.474C464.756 627.388 463.805 629.932 463.896 632.547C463.986 635.147 465.913 679.915 490.097 725.641C488.88 725.652 487.66 725.684 486.448 725.684C458.042 725.684 429.898 722.478 402.791 716.155C400.243 715.56 397.563 716.002 395.341 717.384C393.119 718.765 391.536 720.973 390.942 723.521C390.347 726.069 390.789 728.749 392.171 730.971C393.552 733.193 395.76 734.775 398.308 735.37C414.193 739.066 430.299 741.744 446.525 743.388L474.882 775.526C479.081 780.287 480.175 786.655 477.813 792.562C475.467 798.422 470.328 802.244 464.063 802.786C328.072 814.561 281.544 731.527 265.67 675.721C266.118 675.53 266.562 675.334 266.999 675.121C283.295 687.275 300.907 698.051 319.506 707.249C322.212 720.8 334.199 731.041 348.533 731.041C356.727 731.041 364.634 727.58 370.227 721.544C371.123 720.597 371.822 719.481 372.284 718.262C372.746 717.043 372.961 715.744 372.918 714.441C372.875 713.138 372.574 711.857 372.033 710.671C371.492 709.485 370.721 708.418 369.765 707.532C368.809 706.645 367.686 705.957 366.463 705.507C365.239 705.057 363.939 704.854 362.636 704.91C361.334 704.966 360.055 705.279 358.874 705.832C357.694 706.384 356.634 707.166 355.757 708.13C353.858 710.18 351.291 711.308 348.533 711.308C343.155 711.308 338.769 706.984 338.668 701.632C338.836 699.631 338.389 697.626 337.387 695.886C336.386 694.146 334.877 692.752 333.063 691.892C311.694 681.752 291.651 669.425 273.487 655.253C271.649 653.819 269.363 653.082 267.033 653.173C264.704 653.264 262.482 654.176 260.761 655.749C258.952 657.414 256.583 658.34 254.124 658.345C248.684 658.345 244.258 653.919 244.258 648.479C244.258 646.421 244.908 644.417 246.115 642.751C247.473 640.858 248.118 638.546 247.936 636.223C247.753 633.9 246.754 631.717 245.116 630.06C225.318 610.035 209.097 587.755 196.904 563.837C196.227 562.51 195.259 561.353 194.073 560.454C192.886 559.555 191.51 558.936 190.05 558.644C185.467 557.727 182.14 553.66 182.14 548.974C182.14 547.134 182.641 545.392 183.629 543.8C184.412 542.539 184.9 541.116 185.057 539.64C185.214 538.163 185.035 536.67 184.534 535.272C175.778 510.827 171.16 485.387 170.772 459.601L295.325 483.288C300.341 484.245 305.528 485.233 309.473 487.332C315.33 490.449 319.884 496.631 324.704 503.178C326.152 505.144 327.648 507.176 329.212 509.167C350.139 535.809 382.84 552.588 416.686 554.049C419.295 554.153 421.839 553.219 423.76 551.45C425.681 549.682 426.823 547.225 426.935 544.616C427.048 542.007 426.122 539.461 424.36 537.534C422.598 535.607 420.144 534.457 417.536 534.336C389.365 533.12 362.148 519.154 344.73 496.979C343.355 495.229 342.013 493.407 340.591 491.477C334.95 483.817 328.558 475.136 318.741 469.913C312.157 466.408 305.177 465.078 299.015 463.903L171.316 439.617C173.158 427.527 179.404 416.541 189.102 408.722C200.774 399.311 215.874 395.735 230.519 398.915L278.377 409.337C280.716 409.847 283.16 409.489 285.255 408.33C287.349 407.17 288.95 405.288 289.76 403.035C290.447 401.126 291.705 399.474 293.363 398.305C295.021 397.136 296.999 396.506 299.028 396.5C304.469 396.5 308.895 400.925 308.895 406.366C308.895 406.643 308.867 406.914 308.845 407.187C308.643 409.573 309.316 411.952 310.739 413.878C312.162 415.805 314.237 417.148 316.577 417.658L395.906 434.934C398.247 435.443 400.693 435.083 402.788 433.921C404.884 432.759 406.485 430.875 407.294 428.62C407.978 426.707 409.236 425.052 410.895 423.88C412.555 422.708 414.535 422.076 416.567 422.07C422.007 422.07 426.433 426.495 426.433 431.936C426.433 432.227 426.405 432.512 426.383 432.796C426.184 435.181 426.859 437.557 428.281 439.481C429.704 441.405 431.777 442.746 434.115 443.256L603.103 480.06L603.357 480.113C642.794 487.62 682.357 467.953 699.544 432.275C717.668 394.649 714.515 350.683 690.167 301.594C689.074 299.391 687.197 297.675 684.904 296.783C682.611 295.892 680.068 295.888 677.774 296.774C671.754 299.099 665.926 301.785 660.291 304.382C631.744 317.537 611.117 327.041 581.381 289.852C581.249 289.688 581.199 289.575 581.27 289.366C581.388 289.014 581.696 288.937 581.828 288.904C598.229 284.817 608.291 272.759 617.168 262.122C630.751 245.846 641.484 232.997 672.497 240.948C673.811 241.286 675.181 241.348 676.52 241.133C677.86 240.917 679.14 240.427 680.282 239.694C681.423 238.96 682.401 237.999 683.154 236.871C683.907 235.742 684.42 234.471 684.659 233.135C690.368 201.347 706.476 196.864 726.87 191.186C740.152 187.488 755.206 183.298 765.625 170.038C765.707 169.936 765.892 169.699 766.245 169.73C766.452 169.752 766.528 169.836 766.62 170.016C788.471 212.769 771.054 227.946 746.948 248.951C740.27 254.771 733.363 260.789 727.266 267.643C725.591 269.526 724.701 271.978 724.777 274.497C724.853 277.016 725.89 279.41 727.675 281.189C776.558 329.907 803.481 392.01 803.481 456.055C803.481 489.344 796.43 521.837 782.523 552.631C781.973 553.814 781.664 555.095 781.613 556.398C781.561 557.701 781.769 559.002 782.223 560.225C782.678 561.447 783.371 562.568 784.261 563.521C785.151 564.474 786.222 565.242 787.411 565.778C788.599 566.315 789.883 566.611 791.187 566.649C792.491 566.686 793.789 566.465 795.007 565.997C796.225 565.53 797.338 564.826 798.281 563.925C799.225 563.025 799.981 561.946 800.505 560.752C815.573 527.389 823.213 492.163 823.213 456.055C823.211 389.772 796.712 325.548 748.381 274.195ZM643.661 771.021C658.978 771.021 675.502 769.787 693.285 767.148L700.68 775.53C704.879 780.291 705.974 786.659 703.611 792.566C701.266 798.426 696.126 802.248 689.862 802.79C628.667 808.087 579.594 794.844 544.031 763.425C532.567 753.297 523.272 741.924 515.735 730.215C544.611 753.566 585.594 771.021 643.661 771.021Z" fill="black"/>
<path d="M244.558 371.465C260.878 371.465 274.156 358.188 274.156 341.866C274.156 325.547 260.878 312.268 244.558 312.268C228.238 312.268 214.96 325.545 214.96 341.866C214.96 358.188 228.238 371.465 244.558 371.465ZM244.558 332.002C249.999 332.002 254.424 336.427 254.424 341.868C254.424 347.309 249.999 351.734 244.558 351.734C239.117 351.734 234.692 347.309 234.692 341.868C234.692 336.427 239.119 332.002 244.558 332.002ZM273.857 242.836C290.176 242.836 303.455 229.559 303.455 213.237C303.455 196.918 290.176 183.639 273.857 183.639C257.537 183.639 244.258 196.916 244.258 213.237C244.258 229.559 257.537 242.836 273.857 242.836ZM273.857 203.371C279.297 203.371 283.723 207.797 283.723 213.237C283.723 218.678 279.297 223.103 273.857 223.103C268.416 223.103 263.99 218.678 263.99 213.237C263.99 207.798 268.416 203.371 273.857 203.371ZM341.283 313.17C361.865 313.17 378.61 296.426 378.61 275.844C378.61 255.262 361.865 238.518 341.283 238.518C320.701 238.518 303.957 255.263 303.957 275.844C303.957 296.424 320.701 313.17 341.283 313.17ZM341.283 258.25C350.984 258.25 358.877 266.143 358.877 275.844C358.877 285.544 350.984 293.438 341.283 293.438C331.582 293.438 323.69 285.545 323.69 275.844C323.69 266.142 331.582 258.25 341.283 258.25ZM417.11 474.422C414.493 474.422 411.984 475.462 410.133 477.312C408.283 479.162 407.244 481.671 407.244 484.288V502.163C407.244 507.612 411.66 512.029 417.11 512.029C422.56 512.029 426.976 507.612 426.976 502.163V484.288C426.976 481.671 425.936 479.162 424.086 477.312C422.236 475.462 419.726 474.422 417.11 474.422Z" fill="black"/>
</svg>
